<svg width="26" height="25" viewBox="0 0 26 25" fill="none" xmlns="http://www.w3.org/2000/svg">
<path d="M12.5236 0C5.62055 0 0.0236206 5.59894 0.0236206 12.5C0.0236206 19.4051 5.62055 25 12.5236 25C19.4267 25 25.0236 19.4051 25.0236 12.5C25.0236 5.59894 19.4267 0 12.5236 0ZM12.5236 5.54435C13.6928 5.54435 14.6406 6.49214 14.6406 7.66129C14.6406 8.83044 13.6928 9.77823 12.5236 9.77823C11.3545 9.77823 10.4067 8.83044 10.4067 7.66129C10.4067 6.49214 11.3545 5.54435 12.5236 5.54435ZM15.3462 18.3468C15.3462 18.6808 15.0754 18.9516 14.7414 18.9516H10.3059C9.97186 18.9516 9.70104 18.6808 9.70104 18.3468V17.1371C9.70104 16.8031 9.97186 16.5323 10.3059 16.5323H10.9107V13.3065H10.3059C9.97186 13.3065 9.70104 13.0356 9.70104 12.7016V11.4919C9.70104 11.1579 9.97186 10.8871 10.3059 10.8871H13.5317C13.8657 10.8871 14.1365 11.1579 14.1365 11.4919V16.5323H14.7414C15.0754 16.5323 15.3462 16.8031 15.3462 17.1371V18.3468Z" fill="#8A78A9"/>
</svg>
